<svg width="32" height="32" viewBox="0 0 32 32" fill="none" xmlns="http://www.w3.org/2000/svg">
<g id="006-gym" clip-path="url(#clip0_212_3863)">
<g id="Group">
<g id="Group_2">
<path id="Vector" d="M31.998 7.896C31.998 7.64156 31.897 7.3975 31.717 7.21756L28.9272 4.42775L29.9314 3.42356C30.306 3.04887 30.306 2.44138 29.9314 2.06669C29.5567 1.69206 28.9492 1.692 28.5745 2.06669L27.5703 3.07087L24.7805 0.281062C24.6006 0.101125 24.3566 0 24.102 0C23.8475 0 23.6035 0.101125 23.4236 0.281062L21.0802 2.62444L19.973 1.51725C19.7931 1.33731 19.5491 1.23619 19.2946 1.23619C19.0401 1.23619 18.796 1.33731 18.6162 1.51725L15.5944 4.53906C15.2197 4.91375 15.2197 5.52125 15.5944 5.89594L20.1698 10.4714L10.4695 20.1717L5.89411 15.5962C5.51948 15.2215 4.91192 15.2216 4.53723 15.5962L1.51536 18.6181C1.33542 18.798 1.2343 19.042 1.2343 19.2965C1.2343 19.5509 1.33536 19.795 1.51536 19.9749L2.62261 21.0822L0.279109 23.4256C0.0991094 23.6056 -0.00195312 23.8496 -0.00195312 24.1041C-0.00195312 24.3585 0.0991094 24.6026 0.279109 24.7825L3.06892 27.5723L2.06473 28.5764C1.69005 28.9511 1.69005 29.5586 2.06473 29.9333C2.25211 30.1207 2.49767 30.2143 2.74317 30.2143C2.98867 30.2143 3.2343 30.1207 3.42161 29.9332L4.4258 28.9291L7.21561 31.7189C7.39555 31.8988 7.63955 31.9999 7.89405 31.9999C8.14855 31.9999 8.39261 31.8988 8.57248 31.7189L10.9159 29.3755L12.023 30.4827C12.203 30.6626 12.447 30.7637 12.7015 30.7637C12.9559 30.7637 13.2 30.6626 13.3799 30.4827L16.4017 27.4609C16.7764 27.0862 16.7764 26.4787 16.4017 26.104L11.8263 21.5286L21.5266 11.8282L26.102 16.4037C26.2894 16.5911 26.535 16.6847 26.7805 16.6847C27.026 16.6847 27.2716 16.5911 27.4589 16.4037L30.4807 13.3819C30.6607 13.2019 30.7618 12.9579 30.7618 12.7034C30.7618 12.4489 30.6607 12.2049 30.4807 12.025L29.3735 10.9177L31.7168 8.57437C31.897 8.39444 31.998 8.15044 31.998 7.896ZM7.89405 29.6836L2.31442 24.104L3.97936 22.4391L9.55898 28.0187L7.89405 29.6836ZM14.3665 26.7825L12.7015 28.4474L3.55061 19.2966L5.21555 17.6317L14.3665 26.7825ZM26.7805 14.3684L17.6297 5.2175L19.2946 3.55256L28.4455 12.7035L26.7805 14.3684ZM28.0167 9.56094L22.4371 3.98131L24.102 2.31644L29.6816 7.89606L28.0167 9.56094Z" fill="#C9BDAB"/>
</g>
</g>
</g>
<defs>
<clipPath id="clip0_212_3863">
<rect width="32" height="32" fill="white"/>
</clipPath>
</defs>
</svg>
