<svg width="17" height="17" viewBox="0 0 17 17" fill="none" xmlns="http://www.w3.org/2000/svg">
<g id="bath-tub_2963979" clip-path="url(#clip0_643_12462)">
<g id="Group">
<path id="Vector" d="M15.1498 7.87668H7.62294C5.90127 7.87668 4.22556 7.55836 2.63269 6.92998V2.12212C2.63269 1.67394 2.99731 1.30933 3.44548 1.30933H4.09571C4.54388 1.30933 4.9085 1.67394 4.9085 2.12212V2.35282C4.15888 2.56567 3.60804 3.25589 3.60804 4.0728V4.72303C3.60804 4.99236 3.82638 5.2107 4.09571 5.2107H6.69663C6.96595 5.2107 7.1843 4.99236 7.1843 4.72303V4.0728C7.1843 3.25589 6.63346 2.5657 5.88384 2.35282V2.12212C5.88384 1.13614 5.08168 0.333984 4.09571 0.333984H3.44548C2.4595 0.333984 1.65735 1.13614 1.65735 2.12212V6.58565C1.04064 6.51754 0.422985 6.84915 0.158147 7.44489C-0.000574358 7.8019 -0.0107179 8.19942 0.129504 8.5642C0.269726 8.92904 0.543603 9.21735 0.900676 9.37607C0.936146 9.39184 0.971779 9.40716 1.00731 9.42266V11.2903C1.00731 12.7977 1.77117 14.1298 2.93202 14.9204L2.06455 16.2216C1.91513 16.4457 1.9757 16.7485 2.1998 16.8979C2.28297 16.9533 2.37689 16.9799 2.46987 16.9799C2.62746 16.9799 2.78211 16.9036 2.87607 16.7626L3.79888 15.3784C4.29419 15.5726 4.833 15.6794 5.39633 15.6794H11.2484C11.8117 15.6794 12.3505 15.5726 12.8458 15.3784L13.7687 16.7626C13.8627 16.9036 14.0173 16.9799 14.1749 16.9799C14.2678 16.9799 14.3618 16.9533 14.445 16.8979C14.6691 16.7485 14.7296 16.4457 14.5802 16.2216L13.7127 14.9205C14.8736 14.1299 15.6375 12.7977 15.6375 11.2904V10.7189C16.2051 10.5176 16.6128 9.97549 16.6128 9.33973C16.6128 8.53299 15.9565 7.87668 15.1498 7.87668ZM5.39617 3.26002C5.84434 3.26002 6.20895 3.62463 6.20895 4.0728V4.23536H4.58338V4.0728C4.58338 3.62463 4.948 3.26002 5.39617 3.26002ZM14.6621 11.2903C14.6621 13.1727 13.1307 14.7041 11.2484 14.7041H5.39636C3.51405 14.7041 1.98266 13.1727 1.98266 11.2903V9.81248C3.79056 10.4699 5.68266 10.8027 7.62294 10.8027H14.6621V11.2903ZM15.1498 9.82737H7.62294C5.4292 9.82737 3.3008 9.37565 1.29683 8.4848C1.05114 8.37563 0.940145 8.08683 1.04942 7.84108C1.13001 7.6597 1.30892 7.55186 1.49603 7.55186C1.56202 7.55186 1.62906 7.56528 1.69311 7.59367C3.57166 8.42866 5.56672 8.85202 7.62294 8.85202H15.1498C15.4187 8.85202 15.6375 9.07079 15.6375 9.33969C15.6375 9.6086 15.4187 9.82737 15.1498 9.82737Z" fill="#918675"/>
</g>
</g>
<defs>
<clipPath id="clip0_643_12462">
<rect width="16.6459" height="16.6459" fill="white" transform="translate(0 0.333984)"/>
</clipPath>
</defs>
</svg>
