<svg width="17" height="17" viewBox="0 0 17 17" fill="none" xmlns="http://www.w3.org/2000/svg">
<g id="blueprint (1)" clip-path="url(#clip0_643_12458)">
<path id="Vector" d="M16.6457 0.821656C16.6457 0.552294 16.4273 0.333984 16.1581 0.333984H0.487672C0.218309 0.333984 0 0.552294 0 0.821656V16.4913C0 16.7607 0.218309 16.979 0.487672 16.979H13.7198C13.9891 16.979 14.2075 16.7607 14.2075 16.4913V15.0616C14.2075 14.7922 13.9891 14.5739 13.7198 14.5739C13.4505 14.5739 13.2322 14.7922 13.2322 15.0616V16.0036H0.975344V13.0512H5.8847C6.15407 13.0512 6.37238 12.8329 6.37238 12.5635C6.37238 12.2941 6.15407 12.0758 5.8847 12.0758H0.975344V1.30933H8.71142V6.12077C8.71142 6.39013 8.92986 6.60844 9.19909 6.60844C9.46846 6.60844 9.68677 6.39013 9.68677 6.12077V1.30933H15.6704L15.6705 10.2171H9.75357V9.04693C9.75357 8.77757 9.53513 8.55926 9.2659 8.55926C8.99653 8.55926 8.77822 8.77757 8.77822 9.04693V10.7048C8.77822 10.9741 8.99653 11.1924 9.2659 11.1924H13.2969V12.1349C13.2969 12.4041 13.5154 12.6226 13.7846 12.6226C14.054 12.6226 14.2723 12.4041 14.2723 12.1349V11.1924H16.1582C16.2875 11.1924 16.4116 11.141 16.503 11.0496C16.5944 10.9581 16.6459 10.834 16.6459 10.7048L16.6457 0.821656Z" fill="#918675"/>
</g>
<defs>
<clipPath id="clip0_643_12458">
<rect width="16.6459" height="16.6459" fill="white" transform="translate(0 0.333984)"/>
</clipPath>
</defs>
</svg>
