<svg width="32" height="32" viewBox="0 0 32 32" fill="none" xmlns="http://www.w3.org/2000/svg">
<g id="electric-car" clip-path="url(#clip0_212_3855)">
<path id="Vector" d="M2.94587 6.89581H16.1399C16.5833 9.71669 19.027 11.9166 22.025 11.9166H25.0375C25.5553 11.9166 25.975 11.4969 25.975 10.9791V9.90831H31.0625C31.5802 9.90831 32 9.48856 32 8.97081C32 8.45306 31.5802 8.03331 31.0625 8.03331H25.975V3.88331H31.0625C31.5802 3.88331 32 3.46356 32 2.94581C32 2.42806 31.5802 2.00831 31.0625 2.00831H25.975V0.9375C25.975 0.41975 25.5553 0 25.0375 0H22.025C19.0292 0 16.5836 2.19794 16.1399 5.02081H2.94587C1.332 5.02081 0 6.32513 0 7.96669V21.0209C0 22.6679 1.33775 23.9667 2.94587 23.9667H4.01669V28.05C4.01669 28.5677 4.43644 28.9875 4.95419 28.9875H7.14256C7.56462 30.7143 9.12419 32 10.9792 32C12.8343 32 14.3938 30.7143 14.8159 28.9875H20.1968C20.6188 30.7143 22.1784 32 24.0334 32C25.8884 32 27.4481 30.7143 27.8701 28.9875H31.0625C31.5802 28.9875 32 28.5677 32 28.05V25.5396C32 22.531 29.5524 20.0833 26.5438 20.0833H26.43L22.8601 16.5134C21.9244 15.5778 20.6804 15.0625 19.3569 15.0625H6.9625C5.34863 15.0625 4.01662 16.3667 4.01662 18.0083V22.0916H2.94587C2.36094 22.0917 1.875 21.6187 1.875 21.0208V7.96669C1.875 7.38331 2.34662 6.89581 2.94587 6.89581ZM22.025 1.875H24.1V10.0417H22.025C19.7344 10.0417 17.9416 8.17669 17.9416 5.95837C17.9416 3.70312 19.7664 1.875 22.025 1.875ZM10.9792 30.125C9.835 30.125 8.90419 29.1941 8.90419 28.05C8.90419 26.9059 9.83506 25.975 10.9792 25.975C12.1233 25.975 13.0541 26.9058 13.0541 28.05C13.0541 29.1942 12.1233 30.125 10.9792 30.125ZM24.0333 30.125C22.8891 30.125 21.9583 29.1941 21.9583 28.05C21.9583 26.9059 22.8892 25.975 24.0333 25.975C25.1774 25.975 26.1083 26.9058 26.1083 28.05C26.1083 29.1942 25.1775 30.125 24.0333 30.125ZM15.9334 16.9375H19.3569C20.1795 16.9375 20.9528 17.2578 21.5343 17.8393L23.7784 20.0833H15.9334V16.9375ZM5.89169 18.0083C5.89169 17.4249 6.36331 16.9375 6.96256 16.9375H14.0584V20.0833H5.89169V18.0083ZM5.89169 21.9583H26.5438C28.5185 21.9583 30.125 23.5649 30.125 25.5396V27.1125H27.8711C27.4496 25.3856 25.8891 24.1 24.0333 24.1C22.1781 24.1 20.6177 25.3855 20.1957 27.1125H14.8167C14.3948 25.3855 12.8342 24.1 10.9782 24.1C9.1235 24.1 7.56337 25.3853 7.1415 27.1125H5.89169V21.9583Z" fill="#C9BDAB"/>
</g>
<defs>
<clipPath id="clip0_212_3855">
<rect width="32" height="32" fill="white"/>
</clipPath>
</defs>
</svg>
