<svg width="18" height="18" viewBox="0 0 18 18" fill="none" xmlns="http://www.w3.org/2000/svg">
<g id="FavoriteFilled">
<path id="Vector" d="M8.60226 14.0204L8.60136 14.0196C6.80284 12.3887 5.36071 11.0795 4.36071 9.85688C3.36786 8.64304 2.87617 7.59091 2.87617 6.48509C2.87617 4.69362 4.27516 3.29463 6.06663 3.29463C7.08445 3.29463 8.07108 3.77149 8.71248 4.52469L9.18773 5.08279L9.66298 4.52469C10.3044 3.77149 11.291 3.29463 12.3088 3.29463C14.1003 3.29463 15.4993 4.69362 15.4993 6.48509C15.4993 7.59091 15.0076 8.64307 14.0146 9.85791C13.0146 11.0814 11.5727 12.3921 9.77434 14.0264C9.7741 14.0266 9.77386 14.0268 9.77361 14.027L9.18933 14.5549L8.60226 14.0204Z" stroke="white" stroke-width="1.24844"/>
</g>
</svg>
