<?xml version="1.0" encoding="UTF-8"?><svg id="Layer_1" xmlns="http://www.w3.org/2000/svg" viewBox="0 0 95.73 88.55"><defs><style>.cls-1{fill:#FFFFFF;stroke-width:0px;}</style></defs><path class="cls-1" d="M19.94,36.35c1.92.02,6.41.01,8.67.02h.04c9.4,0,19.27.02,28.6.03,5.73,0,11.73.01,17.49.02,1.43.02,1.33-.15.79-.95-.84-1.22-2.72-3.93-3.53-5.08-.39-.62-.78-.87-1.63-.83-1.55,0-5.56,0-7.27-.01-3.93,0-8.27,0-12.19-.01-9.88,0-17.92-.03-26.08-.02-.28,0-.52.02-.75.08-.38.12-.57.45-.79.75-.86,1.24-2.99,4.29-3.71,5.35-.25.4-.37.65.36.65Z"/><path class="cls-1" d="M75.03,37.45c-.11,0-.21,0-.31,0-4.04,0-8.21,0-12.33-.01l-33.77-.03c-.78,0-1.82,0-2.93,0-2.1,0-4.48,0-5.76-.02-.74,0-1.27-.21-1.57-.63-.45-.62-.06-1.24.13-1.54l.02-.03c.54-.79,1.86-2.7,2.83-4.09l.98-1.41c.24-.33.59-.82,1.32-1.05h.04c.4-.13.76-.14,1.12-.15,4.66,0,9.25,0,14.17,0,3.74,0,7.67.01,11.94.01h12.19c.63.01,1.57.01,2.58.01,1.73,0,3.67,0,4.67,0,1.59-.06,2.3.69,2.73,1.35.81,1.16,2.68,3.85,3.52,5.07.38.55.8,1.17.33,1.84-.42.6-1.22.67-1.9.67ZM28.65,35.33l33.74.03c3.88,0,7.82,0,11.65.01-.94-1.35-2.41-3.48-3.1-4.46l-.02-.04c-.14-.21-.21-.27-.22-.28,0,0-.05,0-.15,0-.03,0-.06,0-.1,0h-.04s-.04,0-.04,0c-.98,0-2.94,0-4.69,0-1.01,0-1.95,0-2.58,0h-12.19c-4.27-.01-8.2-.02-11.95-.02-4.91,0-9.5-.01-14.13,0-.05,0-.16,0-.25.01-.05.05-.1.14-.15.2l-.08.12-.88,1.26c-.69,1-1.57,2.26-2.21,3.18,1.27,0,2.92,0,4.42,0,1.11,0,2.15,0,2.93,0h.03ZM24.63,30.51s0,0,0,0c0,0,0,0,0,0Z"/><path class="cls-1" d="M38.37,7.85c2,.1,7.18.02,9.25.04h.03c2.01,0,4.75,0,6.88,0,.88,0,1.63.03,2.32-.02.4-.04.15-.33.03-.52-.88-1.23-3.11-4.51-4.24-6-.22-.27-.53-.29-.9-.3-1.29,0-5.3,0-7.36-.01-.84.02-1.55-.15-1.93.54-.54.76-1.92,2.74-2.98,4.24-.5.83-1.62,1.95-1.1,2.04Z"/><path class="cls-1" d="M55.92,8.94c-.17,0-.34,0-.52,0-.27,0-.56,0-.85,0h-6.94c-.76-.02-1.99-.01-3.29,0-2.22,0-4.73.02-6.01-.04l-.16-.02c-.46-.07-.84-.32-1.02-.67-.35-.68.12-1.3.71-2.09.2-.26.4-.53.53-.75l.04-.06,1.3-1.84c.68-.97,1.32-1.87,1.66-2.36C42.03-.03,43.29,0,43.97,0c.12,0,.25,0,.38,0,.81,0,1.86,0,2.94,0,1.79,0,3.65,0,4.46,0,.4,0,1.3.02,1.9.74l.03.04c.75,1,1.99,2.78,2.98,4.21.52.74.97,1.4,1.27,1.82l.08.12c.14.22.48.75.13,1.32-.22.35-.63.59-1.14.64h-.05c-.34.03-.69.04-1.04.04ZM46.29,6.85c.52,0,.98,0,1.35,0h6.89c.19,0,.38,0,.57,0-.18-.25-.37-.53-.57-.82-.92-1.33-2.06-2.96-2.8-3.96,0,0-.01,0-.02,0-.79,0-2.64,0-4.43,0-1.08,0-2.13,0-2.91,0-.14,0-.3,0-.46,0-.12,0-.27,0-.38,0l-.02.04c-.33.47-.98,1.39-1.68,2.38-.43.61-.88,1.25-1.28,1.82-.11.18-.24.36-.37.54,1.22.01,2.73,0,4.12,0,.7,0,1.39,0,1.99,0Z"/><path class="cls-1" d="M29.48,22.11c1.81.02,6.59.01,8.83.02h.03c6.55,0,13.79.01,20.05.02,1.7,0,6.3.02,7.73,0,.21-.01.43,0,.55-.11.1-.12-.1-.41-.46-.93-1.13-1.62-2.44-3.52-3.6-5.17-.44-.61-.62-.64-1.64-.64-1.08,0-2.18,0-3.29,0-6.4-.01-15.31,0-23.19-.02-.84,0-.9-.06-1.35.57-.73,1.05-3.08,4.41-3.9,5.59-.22.34-.47.67.23.67Z"/><path class="cls-1" d="M64.11,23.19c-.95,0-2.05,0-3.09,0-1.06,0-2.03,0-2.64,0l-20.09-.02c-.77,0-1.84,0-2.98,0-2.18,0-4.65,0-5.85-.02-.86,0-1.28-.33-1.48-.61-.44-.62-.05-1.23.14-1.52l.06-.09c.83-1.2,3.17-4.56,3.9-5.6.6-.85,1.07-1.08,2.17-1.09h.22c3.82,0,7.86,0,11.74,0,4.17,0,8.16,0,11.47.01h3.29c1.28,0,1.96.12,2.69,1.14.68.96,1.41,2.01,2.13,3.04.51.73,1.01,1.46,1.49,2.13l.06.08c.46.67.9,1.31.35,1.97l-.1.1c-.45.41-1.04.44-1.33.45h-.12c-.44,0-1.17.01-2.02.01ZM58.75,21.11c.6,0,1.41,0,2.28,0,1.29,0,2.69,0,3.75,0-.36-.52-.75-1.07-1.13-1.63-.71-1.02-1.43-2.07-2.11-3.02-.04-.05-.07-.09-.09-.12-.14,0-.36,0-.48,0h-3.28c-3.32-.01-7.3-.01-11.47-.01-3.88,0-7.92,0-11.73-.01h-.23s0,0,0,0c-.01.02-.03.04-.05.06-.59.84-2.24,3.2-3.28,4.71,2.22,0,5.61,0,7.38,0l20.08.02c.11,0,.23,0,.36,0Z"/><path class="cls-1" d="M78.77,44.05h-.01c-8.1-.13-22.07-.01-30.39-.05-.24,0-.42,0-.55,0-.11,0-.26,0-.47,0-.46,0-.89,0-1.38,0-5.16,0-12.6,0-18.21,0-3.47,0-6.76,0-10.13,0-.93,0-.77-.05-1.27.64-1.45,2.02-2.86,3.98-4.37,6.07-3.3,4.66-7.8,10.68-10.76,15.05h0c1.1,1.82,13.72,19.06,15.35,21.43.33.51.67.28,1.55.33,7.86-.02,21.71.02,29.39,0,.1,0,.18,0,.25,0,.02,0,.05,0,.08,0,.6,0,2.46,0,5.01,0,7.97,0,16.97,0,25.03,0,1,0,.87.07,1.31-.54,1.6-2.22,3.16-4.38,4.8-6.67,2.8-3.89,6.39-8.88,9.01-12.51.65-.98,1.17-1.45,1.39-2.05-1.42-2.1-13.52-18.97-15.62-21.68Z"/><path class="cls-1" d="M17.26,88.55c-.52,0-1.25-.1-1.76-.88-.61-.88-2.87-4-5.48-7.61-4.31-5.95-9.19-12.69-9.89-13.84l-.13-.22v-.52l.16-.25c1.82-2.68,4.22-5.99,6.54-9.18,1.52-2.09,2.95-4.07,4.24-5.88l4.37-6.07c.07-.09.12-.16.16-.22.56-.78,1.01-.92,1.99-.92,0,0,.01,0,.02,0h10.3c2.66,0,5.74,0,8.79,0,3.37,0,6.71,0,9.41,0,.23,0,.46,0,.68,0,.23,0,.46,0,.69,0h.12c.15,0,.27,0,.36,0,.09,0,.19,0,.31,0h.23c3.21.01,7.22,0,11.47,0,6.86-.01,13.96-.03,18.95.05h.29s.55.24.55.24l.19.24c2.17,2.8,14.21,19.59,15.66,21.74l.26.39-.15.42c-.18.5-.48.89-.83,1.34-.2.26-.42.55-.66.91l-.02.03c-1.22,1.7-2.66,3.69-4.12,5.73-1.67,2.33-3.39,4.72-4.89,6.79l-4.88,6.78c-.52.73-.93.92-1.98.92,0,0,0,0-.01,0h-.29c-3.83,0-7.86,0-11.89,0-4.48,0-8.96,0-13.15,0h-2.65c-1.17,0-2,0-2.37,0h-.11s-.07,0-.14,0h-.06c-3.62,0-8.51,0-13.69,0-5.67,0-11.54-.01-15.69,0h-.05s-.05,0-.05,0c-.18-.01-.34,0-.5,0-.09,0-.18,0-.29,0ZM24.55,86.46c2.94,0,6.14,0,9.28,0,5.16,0,10.04,0,13.66,0,.11,0,.21,0,.29,0h.11c.33,0,1.16,0,2.32,0h2.65c4.2,0,8.68,0,13.15,0,4.03,0,8.05,0,11.87,0,.08,0,.16,0,.23,0l4.83-6.71c1.5-2.07,3.21-4.46,4.89-6.79,1.46-2.03,2.89-4.02,4.11-5.71.27-.41.53-.74.73-1.01.13-.17.25-.32.34-.46-2.19-3.15-12.24-17.16-14.92-20.72-4.92-.07-11.69-.05-18.24-.04-4.25,0-8.26.02-11.47,0h-.23s-.03,0-.05,0c-.09,0-.17,0-.23,0h-.04s-.04,0-.04,0c-.08,0-.18,0-.31,0h-.11c-.24,0-.47,0-.71,0-.22,0-.43,0-.66,0-2.71,0-6.05,0-9.42,0-3.05,0-6.13,0-8.79,0h-10.25s-.07.1-.11.15l-4.36,6.05c-1.28,1.82-2.72,3.8-4.25,5.89-2.17,2.99-4.41,6.07-6.16,8.63,1.32,1.95,5.81,8.15,9.49,13.22,2.47,3.4,4.61,6.37,5.39,7.48.17,0,.39-.01.65,0,1.85,0,4.03,0,6.38,0Z"/></svg>