<svg width="32" height="32" viewBox="0 0 32 32" fill="none" xmlns="http://www.w3.org/2000/svg">
<g id="mooring (1)" clip-path="url(#clip0_212_3821)">
<path id="Vector" d="M31.0625 18.075H25.0375C23.3396 18.075 21.9583 16.6937 21.9583 14.9958V7.9H23.0292C24.6558 7.9 25.975 6.58381 25.975 4.95419V2.94581C25.975 1.31956 24.6588 0 23.0292 0H8.97081C7.34338 0 6.025 1.31594 6.025 2.94581V4.95412C6.025 6.58156 7.34094 7.89994 8.97081 7.89994H10.0417V14.9967C10.0417 16.6941 8.66081 18.0749 6.9625 18.0749H0.9375C0.41975 18.0749 0 18.4947 0 19.0124V31.0625C0 31.5802 0.41975 32 0.9375 32H31.0625C31.5802 32 32 31.5802 32 31.0625V19.0125C32 18.4948 31.5802 18.075 31.0625 18.075ZM8.97081 6.025C8.38419 6.025 7.9 5.55125 7.9 4.95419V2.94581C7.9 2.34725 8.38581 1.875 8.97081 1.875H23.0292C23.6216 1.875 24.1 2.35494 24.1 2.94581V4.95412C24.1 5.544 23.6225 6.02494 23.0292 6.02494L8.97081 6.025ZM21.159 18.075H10.8415C11.5142 17.2292 11.9167 16.1591 11.9167 14.9968V7.9H20.0833V14.9958C20.0833 16.1584 20.4859 17.2289 21.159 18.075ZM30.125 30.125H1.875V25.1467C2.73813 25.6886 3.70019 25.9749 4.70262 25.975C6.08612 25.9751 7.39262 25.4299 8.46869 24.4202C9.54437 25.4297 10.8507 25.9749 12.2339 25.975C13.6174 25.9751 14.9239 25.4299 15.9999 24.4202C17.0756 25.4297 18.3819 25.9749 19.7651 25.975C21.1486 25.9751 22.4551 25.4299 23.5312 24.4202C24.6069 25.4297 25.9132 25.9749 27.2964 25.975C28.2991 25.9751 29.2615 25.6886 30.125 25.1465V30.125ZM30.125 22.692C28.4614 24.6575 25.8263 24.5278 24.2719 22.4544C23.9199 21.9759 23.1426 21.976 22.7907 22.4544C21.1558 24.6348 18.3755 24.6347 16.7406 22.4544C16.3881 21.976 15.6118 21.9759 15.2594 22.4544C13.6244 24.6348 10.8444 24.6348 9.20938 22.4544C9.03181 22.2256 8.75844 22.0917 8.46875 22.0917C8.17906 22.0917 7.90575 22.2256 7.72813 22.4544C6.17394 24.5279 3.53831 24.6575 1.875 22.692V19.95H30.125V22.692Z" fill="#C9BDAB"/>
</g>
<defs>
<clipPath id="clip0_212_3821">
<rect width="32" height="32" fill="white"/>
</clipPath>
</defs>
</svg>
