<svg width="32" height="32" viewBox="0 0 32 32" fill="none" xmlns="http://www.w3.org/2000/svg">
<g id="pawprint 1" clip-path="url(#clip0_212_3830)">
<path id="Vector" d="M21.4015 16.9575C19.9615 14.7112 17.5091 13.3699 14.8412 13.3699C12.1735 13.3699 9.72082 14.7112 8.28112 16.9575L4.8114 22.3704C4.23572 23.2686 3.97009 24.3059 4.04309 25.3701C4.11609 26.4346 4.52112 27.4258 5.21423 28.2371C5.90783 29.0481 6.82434 29.6023 7.86462 29.8401C8.9049 30.0776 9.97131 29.9763 10.9484 29.5469L11.0121 29.5186C13.4708 28.4587 16.2811 28.4683 18.7338 29.5469C19.3663 29.8249 20.0365 29.9656 20.7128 29.9656C21.0804 29.9656 21.4503 29.9238 21.8168 29.8403C22.857 29.6028 23.7736 29.0486 24.4674 28.2375C25.1608 27.4265 25.566 26.4351 25.6393 25.3706C25.7125 24.3059 25.4469 23.2686 24.8712 22.3701L21.4015 16.9575ZM23.0419 27.0183C22.1593 28.05 20.7316 28.3762 19.4889 27.8298C18.0118 27.1802 16.4264 26.8555 14.8404 26.8555C13.256 26.8555 11.6708 27.1799 10.1947 27.8289L10.1527 27.8474C8.91955 28.3689 7.51281 28.0386 6.64001 27.0183C5.75842 25.9863 5.65808 24.5254 6.3905 23.3826L9.86047 17.9697C10.9537 16.2642 12.8155 15.2458 14.8412 15.2458C16.8668 15.2458 18.7289 16.2642 19.8224 17.9697L23.2919 23.3823C24.0245 24.5256 23.9239 25.9868 23.0419 27.0183Z" fill="#C9BDAB"/>
<path id="Vector_2" d="M5.74343 16.9519C6.77566 16.5554 7.55984 15.7236 7.95169 14.6096C8.32424 13.5495 8.29373 12.3528 7.86526 11.2395C7.43655 10.1269 6.65676 9.21873 5.6697 8.68187C4.63235 8.11815 3.49295 8.02635 2.46243 8.42357C0.389186 9.22069 -0.56223 11.7827 0.341823 14.136C1.06399 16.009 2.74832 17.1914 4.4512 17.1914C4.88601 17.1914 5.32205 17.1142 5.74343 16.9519ZM2.09231 13.4621C1.5596 12.0754 2.02761 10.6003 3.13626 10.1741C3.33645 10.0969 3.54812 10.0586 3.76419 10.0586C4.09768 10.0586 4.44216 10.1496 4.77371 10.3301C5.3699 10.654 5.84622 11.2165 6.11477 11.9136C6.38308 12.6111 6.40701 13.3474 6.18191 13.9873C5.97561 14.5737 5.58084 15.0049 5.07058 15.2009L5.06961 15.2014C3.96243 15.6282 2.62673 14.8476 2.09231 13.4621Z" fill="#C9BDAB"/>
<path id="Vector_3" d="M12.4714 12.7117C15.0632 12.7117 17.1719 10.3093 17.1719 7.35644C17.1719 4.40283 15.0632 2 12.4714 2C9.87988 2 7.77148 4.40283 7.77148 7.35644C7.77148 10.3093 9.87988 12.7117 12.4714 12.7117ZM12.4714 3.87573C14.0288 3.87573 15.2961 5.43726 15.2961 7.35644C15.2961 9.2749 14.0288 10.8359 12.4714 10.8359C10.9141 10.8359 9.64722 9.2749 9.64722 7.35644C9.64722 5.43726 10.9141 3.87573 12.4714 3.87573Z" fill="#C9BDAB"/>
<path id="Vector_4" d="M20.595 14.0271H20.5953C20.9939 14.1594 21.4007 14.2227 21.8057 14.2227C23.6959 14.2227 25.5379 12.8469 26.2408 10.7327C26.6456 9.51562 26.6189 8.22876 26.1658 7.10937C25.6917 5.93774 24.813 5.08716 23.6915 4.71411C22.5699 4.34155 21.3563 4.49682 20.275 5.15161C19.242 5.77734 18.4505 6.79199 18.0464 8.00903C17.1932 10.5764 18.3365 13.2761 20.595 14.0271ZM19.8265 8.60058C20.0904 7.80591 20.5948 7.15112 21.2469 6.7561C21.8501 6.39062 22.5084 6.29761 23.0999 6.49414C23.6912 6.69092 24.1624 7.15918 24.4271 7.81299C24.7129 8.51953 24.7251 9.34619 24.4607 10.1409C23.9336 11.7268 22.4649 12.6716 21.1868 12.2471C19.9097 11.8223 19.2994 10.1865 19.8265 8.60058Z" fill="#C9BDAB"/>
<path id="Vector_5" d="M30.4931 13.4012L30.4924 13.4004C28.705 12.0801 26.0319 12.6524 24.5332 14.6768C23.0358 16.7022 23.27 19.4251 25.0546 20.7464C25.7055 21.2286 26.4746 21.459 27.2617 21.459C28.6335 21.459 30.0607 20.7588 31.0146 19.4712C32.5119 17.4459 32.278 14.723 30.4931 13.4012ZM29.507 18.3553C28.622 19.5499 27.1257 19.9461 26.1708 19.2388C25.2167 18.5325 25.1586 16.9861 26.0412 15.7923C26.6279 14.9998 27.4848 14.5589 28.2746 14.5589C28.674 14.5589 29.0563 14.6717 29.3776 14.9092C30.331 15.6163 30.3889 17.1622 29.507 18.3553Z" fill="#C9BDAB"/>
</g>
<defs>
<clipPath id="clip0_212_3830">
<rect width="32" height="32" fill="white"/>
</clipPath>
</defs>
</svg>
