<svg width="17" height="18" viewBox="0 0 17 18" fill="none" xmlns="http://www.w3.org/2000/svg">
<g id="people" clip-path="url(#clip0_643_12443)">
<g id="guest">
<g id="Group">
<path id="Vector" d="M16.5804 11.0587L15.913 9.30678C15.4125 8.05543 14.1611 7.22119 12.8264 7.22119H12.2424C10.9076 7.22119 9.65627 8.05543 9.15573 9.30678L8.73861 10.3079C8.07122 9.97417 7.40383 9.7239 6.65302 9.7239H5.06798C3.31608 9.7239 1.81446 10.725 1.2305 12.31L0.0625676 15.2298C-0.104279 15.647 0.0625677 16.1475 0.563109 16.3144C1.06365 16.4812 1.48077 16.3144 1.64761 15.8138L2.81554 12.894C3.14924 11.9763 4.0669 11.3924 5.06798 11.3924H6.5696C7.57068 11.3924 8.48834 11.9763 8.90546 12.9774L10.0734 15.8972C10.2402 16.2309 10.4905 16.3978 10.8242 16.3978C10.9076 16.3978 10.991 16.3978 11.1579 16.3144C11.575 16.1475 11.8253 15.647 11.6584 15.2298L10.4905 12.31C10.4071 12.0598 10.2402 11.7261 10.0734 11.4758L10.7408 9.89074C10.991 9.22335 11.575 8.80624 12.3258 8.80624H12.9098C13.5772 8.80624 14.2446 9.22335 14.4948 9.89074L15.1622 11.6426C15.3291 11.9763 15.5793 12.1432 15.913 12.1432C15.9965 12.1432 16.0799 12.1432 16.2467 12.0598C16.5804 11.9763 16.7473 11.4758 16.5804 11.0587Z" fill="#918675" stroke="white" stroke-width="0.572047"/>
<path id="Vector_2" d="M5.81936 8.88921C7.65468 8.88921 9.1563 7.38759 9.1563 5.55227C9.1563 3.71695 7.65468 2.21533 5.81936 2.21533C3.98404 2.21533 2.48242 3.71695 2.48242 5.55227C2.48242 7.38759 3.98404 8.88921 5.81936 8.88921ZM5.81936 3.8838C6.73702 3.8838 7.48783 4.63461 7.48783 5.55227C7.48783 6.46993 6.73702 7.22074 5.81936 7.22074C4.9017 7.22074 4.15089 6.46993 4.15089 5.55227C4.15089 4.63461 4.9017 3.8838 5.81936 3.8838Z" fill="#918675" stroke="white" stroke-width="0.572047"/>
<path id="Vector_3" d="M12.4929 6.38676C13.9111 6.38676 14.9956 5.30225 14.9956 3.88405C14.9956 2.46585 13.9111 1.38135 12.4929 1.38135C11.0747 1.38135 9.99023 2.46585 9.99023 3.88405C9.99023 5.30225 11.0747 6.38676 12.4929 6.38676ZM12.4929 3.04982C12.9935 3.04982 13.3272 3.38351 13.3272 3.88405C13.3272 4.38459 12.9935 4.71829 12.4929 4.71829C11.9924 4.71829 11.6587 4.38459 11.6587 3.88405C11.6587 3.38351 11.9924 3.04982 12.4929 3.04982Z" fill="#918675" stroke="white" stroke-width="0.572047"/>
</g>
</g>
</g>
<defs>
<clipPath id="clip0_643_12443">
<rect width="16.6459" height="16.6459" fill="white" transform="translate(0 0.687988)"/>
</clipPath>
</defs>
</svg>
