<svg width="17" height="18" viewBox="0 0 17 18" fill="none" xmlns="http://www.w3.org/2000/svg">
<g id="single-bed_952776" clip-path="url(#clip0_643_12451)">
<g id="Group">
<g id="Group_2">
<path id="Vector" d="M14.7549 8.15595V3.52762C14.7549 2.58648 13.9892 1.8208 13.0481 1.8208H3.60166C2.66051 1.8208 1.8949 2.58648 1.8949 3.52762V8.15595C0.810448 8.41682 0.00195312 9.39435 0.00195312 10.5577V14.0099C0.00195312 14.2837 0.223974 14.5058 0.497851 14.5058H1.89487V15.7051C1.89487 15.979 2.11689 16.201 2.39077 16.201C2.66464 16.201 2.88666 15.979 2.88666 15.7051V14.5058H13.763V15.7051C13.763 15.979 13.9851 16.201 14.2589 16.201C14.5328 16.201 14.7548 15.979 14.7548 15.7051V14.5058H16.1519C16.4257 14.5058 16.6478 14.2837 16.6478 14.0099V10.5577C16.6478 9.39435 15.8393 8.41682 14.7549 8.15595ZM2.8867 3.52762C2.8867 3.13339 3.20745 2.81263 3.60166 2.81263H13.0481C13.4423 2.81263 13.7631 3.13339 13.7631 3.52762V8.08709H12.1243V7.30474C12.1243 6.00851 11.0698 4.95396 9.77357 4.95396H6.87627C5.58004 4.95396 4.5255 6.00854 4.5255 7.30474V8.08706H2.8867V3.52762ZM11.1325 7.30474V8.08706H5.51723V7.30474C5.51723 6.55538 6.12685 5.94576 6.87621 5.94576H9.77353C10.5229 5.94573 11.1325 6.55541 11.1325 7.30474ZM0.993748 13.514V10.5577C0.993748 9.74229 1.65714 9.07889 2.47256 9.07889H14.1771C14.9926 9.07889 15.656 9.74229 15.656 10.5577V13.514H0.993748Z" fill="#918675"/>
</g>
</g>
</g>
<defs>
<clipPath id="clip0_643_12451">
<rect width="16.6459" height="16.6459" fill="white" transform="translate(0 0.687988)"/>
</clipPath>
</defs>
</svg>
