<svg width="32" height="32" viewBox="0 0 32 32" fill="none" xmlns="http://www.w3.org/2000/svg">
<g id="water-waves" clip-path="url(#clip0_212_3809)">
<g id="Group">
<path id="Vector" d="M28.6211 14.6633C27.8475 14.6633 27.1793 14.4171 26.5815 13.9248C26.265 13.6787 25.9837 13.3974 25.7024 13.116C25.4914 12.9051 25.2804 12.7292 25.0343 12.5886C24.5771 12.3073 24.1551 12.3424 23.7332 12.5886C23.5222 12.7292 23.3112 12.8699 23.1354 13.0457C22.854 13.327 22.5376 13.6084 22.2211 13.8545C21.2013 14.6985 20.1112 14.8743 18.8804 14.382C18.5991 14.2765 18.3529 14.1007 18.142 13.9248C17.8255 13.6435 17.509 13.3622 17.1925 13.0809C17.0167 12.9051 16.8057 12.7292 16.5947 12.5886C16.1727 12.3073 15.7859 12.2721 15.3288 12.5182C14.9771 12.7292 14.6255 13.0106 14.3442 13.2919C13.9573 13.6787 13.5705 14.0303 13.0782 14.2765C12.0584 14.804 11.0738 14.7688 10.054 14.2413C9.63207 13.9952 9.28042 13.6787 8.92877 13.327C8.64745 13.0457 8.36613 12.7996 8.04965 12.5886C7.66284 12.3424 7.27602 12.3073 6.85405 12.5182C6.5024 12.6941 6.22108 12.9754 5.93976 13.2215C5.69361 13.4325 5.48262 13.6435 5.23646 13.8545C4.39251 14.5578 3.44306 14.8391 2.35295 14.5578C1.93097 14.4523 1.54416 14.2413 1.19251 13.9952C0.876024 13.749 0.55954 13.4677 0.278222 13.1864C-0.00309708 12.8699 -0.0382619 12.4479 0.243057 12.1314C0.524375 11.8149 0.981518 11.8149 1.298 12.0963C1.54416 12.3073 1.75514 12.5182 1.96613 12.7292C2.17712 12.9402 2.42328 13.0457 2.66943 13.116C3.23207 13.2567 3.75954 13.1512 4.21668 12.7292C4.53317 12.4831 4.81449 12.2018 5.0958 11.9556C5.51778 11.5688 5.97493 11.2523 6.5024 11.0413C7.17053 10.7952 7.8035 10.8303 8.43646 11.1116C8.92877 11.3226 9.31559 11.6743 9.66723 12.0259C9.94855 12.2721 10.2299 12.5534 10.5112 12.7996C11.0738 13.2567 11.6716 13.2919 12.3046 13.0106C12.7969 12.7644 13.1134 12.3424 13.5002 12.0259C13.9925 11.6391 14.4497 11.2523 15.0475 11.0413C15.7508 10.8303 16.3837 10.8655 17.0167 11.2171C17.4387 11.4281 17.8255 11.7095 18.142 12.0611C18.3881 12.3424 18.7046 12.5886 18.9859 12.8347C19.5486 13.2919 20.287 13.327 20.8848 12.9402C21.2716 12.6941 21.6233 12.3424 21.9398 12.0259C22.3266 11.6743 22.7486 11.3578 23.2057 11.1468C24.0848 10.76 24.8936 10.8303 25.7024 11.3226C26.1947 11.6391 26.6167 12.0259 27.0387 12.4479C27.32 12.7292 27.6365 13.0106 28.0233 13.116C28.6211 13.2567 29.1486 13.1512 29.6057 12.7292C29.887 12.4479 30.2035 12.2369 30.4848 11.9556C30.8365 11.604 31.3288 11.7095 31.5749 11.9908C31.8562 12.3073 31.8211 12.7644 31.5046 13.0809C31.153 13.3974 30.8013 13.7138 30.4497 13.9952C29.9925 14.4171 29.3595 14.6633 28.6211 14.6633Z" fill="#C9BDAB"/>
<path id="Vector_2" d="M28.5175 27.569C27.8494 27.569 27.1813 27.3228 26.5835 26.8305C26.267 26.5844 25.9857 26.303 25.7043 26.0217C25.4933 25.8107 25.2824 25.6349 25.0362 25.4942C24.5791 25.2129 24.1571 25.2481 23.7351 25.4942C23.4186 25.6701 23.1725 25.9162 22.9263 26.1624C22.645 26.4437 22.3637 26.6898 22.0472 26.936C21.0977 27.6393 20.0428 27.78 18.9175 27.3228C18.5307 27.1822 18.2494 26.936 17.9329 26.6898C17.5461 26.3382 17.1944 25.9514 16.7725 25.6349C16.2098 25.1778 15.7527 25.1778 15.1549 25.5997C14.6626 25.9162 14.3109 26.3382 13.8889 26.725C13.1857 27.2877 12.412 27.6745 11.4977 27.6041C11.1461 27.569 10.7944 27.4986 10.4428 27.358C9.91532 27.1118 9.45818 26.7602 9.07137 26.3382C8.82521 26.0569 8.50873 25.8459 8.22741 25.5997C7.77027 25.2481 7.27796 25.2129 6.78565 25.5294C6.46917 25.7404 6.15269 25.9866 5.87137 26.2679C5.34389 26.7602 4.81642 27.2173 4.11313 27.4635C3.55049 27.6393 2.98785 27.6393 2.42521 27.5338C1.96807 27.4283 1.54609 27.1822 1.15928 26.9008C0.87796 26.6195 0.596641 26.3734 0.350487 26.092C0.0691685 25.8107 0.0340037 25.3536 0.315322 25.0371C0.561476 24.7558 1.01862 24.6855 1.3351 24.9668C1.58126 25.1778 1.79225 25.4239 2.0384 25.6349C2.70653 26.2327 3.55049 26.2327 4.25378 25.7052C4.60543 25.4239 4.95708 25.1074 5.27356 24.7909C5.87137 24.2635 6.50433 23.8767 7.31313 23.8063C7.66477 23.7712 8.01642 23.8415 8.33291 23.947C8.89554 24.158 9.35269 24.5096 9.77466 24.9316C10.056 25.1778 10.3021 25.4591 10.6186 25.6701C11.1813 26.1272 11.7791 26.1975 12.4472 25.8811C12.9043 25.6349 13.2208 25.2481 13.6076 24.9316C14.1703 24.4745 14.7329 23.9822 15.4714 23.8415C16.1043 23.7008 16.7021 23.8415 17.2296 24.158C17.6516 24.4041 18.0384 24.7206 18.3549 25.0723C18.601 25.3184 18.8472 25.5294 19.1285 25.7404C19.6911 26.1975 20.3944 26.1975 20.9922 25.8459C21.4142 25.5646 21.7659 25.2129 22.1175 24.8613C22.5395 24.4745 22.9966 24.158 23.5241 23.947C24.2274 23.6657 24.9307 23.736 25.5988 24.1228C26.0208 24.369 26.4076 24.6503 26.7241 24.9668C26.9351 25.1778 27.1461 25.3887 27.3571 25.5646C28.1659 26.2679 29.0098 26.2679 29.8186 25.5646C30.0999 25.3184 30.3813 25.0723 30.6626 24.8261C30.9439 24.58 31.3659 24.58 31.6472 24.8261C31.9285 25.0723 31.9637 25.4591 31.7879 25.7756C31.7175 25.8811 31.6472 25.9514 31.5769 26.0217C31.2955 26.2679 31.0494 26.514 30.7681 26.7602C30.1351 27.2525 29.4318 27.569 28.5175 27.569Z" fill="#C9BDAB"/>
<path id="Vector_3" d="M28.5856 21.0984C27.812 21.0984 27.1438 20.8523 26.546 20.3248C26.2295 20.0787 25.9482 19.7973 25.6669 19.516C25.4559 19.305 25.2098 19.1292 24.9636 18.9534C24.5416 18.7072 24.1548 18.7776 23.7328 18.9885C23.4867 19.1292 23.2757 19.305 23.0999 19.4809C22.7834 19.7973 22.4669 20.0787 22.1153 20.36C21.1306 21.1336 20.0757 21.2743 18.9153 20.8523C18.5636 20.7116 18.2823 20.5006 18.0361 20.2896C17.579 19.9028 17.1922 19.4457 16.6999 19.094C16.2076 18.7424 15.7504 18.7072 15.2581 19.0237C14.9416 19.2347 14.6251 19.4809 14.379 19.7622C13.957 20.1842 13.4647 20.571 12.9021 20.8171C11.9526 21.2391 11.0032 21.1688 10.0889 20.6765C9.6669 20.4655 9.35042 20.149 9.03394 19.7973C8.75262 19.516 8.4713 19.2699 8.15481 19.0237C7.768 18.7424 7.34602 18.7072 6.88888 18.9534C6.53723 19.1292 6.25591 19.4105 5.9746 19.6567C5.72844 19.8677 5.48229 20.149 5.20097 20.36C4.21635 21.1336 3.12624 21.3094 1.9658 20.8523C1.29767 20.571 0.7702 20.0787 0.277892 19.516C0.0317384 19.2347 0.0669033 18.7776 0.348222 18.5314C0.629541 18.2501 1.05152 18.2501 1.368 18.4962C1.57899 18.7072 1.78998 18.9182 2.03613 19.1292C2.73943 19.7622 3.68888 19.7622 4.42734 19.094C4.77899 18.7776 5.13064 18.4611 5.48229 18.1798C5.9746 17.7578 6.53723 17.4413 7.1702 17.3358C7.62734 17.2655 8.08448 17.3358 8.54163 17.5116C9.03394 17.7226 9.42075 18.0391 9.7724 18.3907C10.0537 18.6369 10.2999 18.8831 10.5812 19.1292C11.2142 19.727 12.1284 19.727 12.8317 19.1644C13.0427 18.9885 13.2537 18.7776 13.4647 18.6017C13.746 18.3204 14.0625 18.0743 14.4142 17.8281C15.4339 17.16 16.4889 17.0545 17.5438 17.7929C17.8603 18.0039 18.1416 18.2149 18.3878 18.4962C18.6339 18.7776 18.9504 19.0237 19.2317 19.2347C19.7592 19.6567 20.4977 19.6918 21.0955 19.305C21.4823 19.0589 21.7988 18.7424 22.1504 18.4259C22.5372 18.0391 22.9592 17.7578 23.4515 17.5468C24.2955 17.16 25.1394 17.2303 25.9482 17.7578C26.3702 18.0391 26.757 18.3556 27.1087 18.7072C27.3196 18.9534 27.5658 19.1644 27.8471 19.3402C28.4449 19.727 29.2889 19.6918 29.9218 19.094C30.2032 18.8479 30.4845 18.6017 30.7658 18.3204C31.0823 18.0391 31.5746 18.0743 31.8207 18.3556C32.1021 18.6721 32.0669 19.1292 31.7504 19.4457C31.4339 19.7622 31.0823 20.0435 30.7306 20.3248C30.0273 20.8523 29.3592 21.1336 28.5856 21.0984Z" fill="#C9BDAB"/>
<path id="Vector_4" d="M3.19689 8.19359C2.45843 8.19359 1.7903 7.9826 1.1925 7.52546C0.91118 7.2793 0.629861 7.03315 0.348543 6.75183C0.0320592 6.43535 0.0320592 5.97821 0.278213 5.69689C0.559532 5.3804 1.01667 5.3804 1.36832 5.66172C1.57931 5.87271 1.7903 6.0837 2.00129 6.25952C2.70459 6.85733 3.51338 6.85733 4.21667 6.29469C4.53316 6.04854 4.84964 5.76722 5.16613 5.4859C5.72876 4.99359 6.32657 4.57161 7.06503 4.46612C7.55733 4.36062 8.04964 4.46612 8.50679 4.67711C8.96393 4.8881 9.31558 5.20458 9.70239 5.52106C9.94854 5.76722 10.2299 5.97821 10.476 6.22436C11.1793 6.89249 12.1288 6.85733 12.8321 6.22436C13.043 6.04854 13.254 5.83755 13.465 5.62656C13.8518 5.31007 14.2387 4.95843 14.6958 4.74744C15.6101 4.29029 16.5244 4.29029 17.4387 4.8881C17.8958 5.20458 18.2826 5.59139 18.7046 5.97821C18.9859 6.22436 19.2672 6.50568 19.654 6.64634C20.2167 6.82216 20.709 6.71667 21.2013 6.36502C21.5529 6.11887 21.8343 5.83755 22.1507 5.52106C22.5727 5.09908 23.065 4.7826 23.6277 4.57161C24.331 4.32546 25.0343 4.36062 25.7024 4.74744C26.1244 4.95843 26.476 5.23974 26.8277 5.59139C27.0387 5.80238 27.2496 6.01337 27.4606 6.18919C28.1991 6.85733 29.0782 6.89249 29.8518 6.25952C30.1332 6.01337 30.4145 5.76722 30.6606 5.52106C31.0123 5.20458 31.5046 5.16941 31.7859 5.52106C32.0672 5.87271 32.0321 6.32985 31.6452 6.64634C31.3639 6.89249 31.0826 7.13865 30.8013 7.3848C29.5705 8.47491 27.7419 8.43974 26.6167 7.41996C26.3002 7.13865 26.0189 6.89249 25.7376 6.61117C25.5266 6.40018 25.2804 6.22436 25.0343 6.0837C24.6123 5.83755 24.2255 5.90788 23.8387 6.15403C23.6277 6.29469 23.4167 6.43535 23.2408 6.61117C22.9244 6.92766 22.5727 7.20897 22.2211 7.49029C21.2365 8.26392 20.1463 8.43974 18.9859 7.9826C18.6343 7.84194 18.3178 7.63095 18.0716 7.3848C17.72 7.06832 17.4035 6.75183 17.0518 6.43535C16.8409 6.25952 16.5947 6.0837 16.3134 5.97821C15.9969 5.87271 15.7156 5.94304 15.4343 6.0837C15.0826 6.25952 14.8013 6.50568 14.52 6.787C14.1332 7.20897 13.676 7.56062 13.1837 7.84194C12.1639 8.36941 11.1793 8.33425 10.1595 7.80678C9.73755 7.59579 9.42107 7.2793 9.06942 6.92766C8.7881 6.64634 8.47162 6.40018 8.15514 6.15403C7.73316 5.83755 7.31118 5.83755 6.85404 6.0837C6.50239 6.29469 6.22107 6.57601 5.93975 6.82216C5.72876 6.99799 5.51777 7.24414 5.27162 7.41996C4.63865 7.91227 3.97052 8.22875 3.19689 8.19359Z" fill="#C9BDAB"/>
</g>
</g>
<defs>
<clipPath id="clip0_212_3809">
<rect width="32" height="32" fill="white"/>
</clipPath>
</defs>
</svg>
